<svg xmlns="http://www.w3.org/2000/svg" viewBox="0 0 64 64">
  <defs>
    <linearGradient id="bg" x1="8" y1="4" x2="56" y2="62" gradientUnits="userSpaceOnUse">
      <stop stop-color="#17212d"/>
      <stop offset="0.58" stop-color="#0f151e"/>
      <stop offset="1" stop-color="#0a0f15"/>
    </linearGradient>
    <linearGradient id="boltEdge" x1="21" y1="12" x2="45" y2="54" gradientUnits="userSpaceOnUse">
      <stop stop-color="#6ed1ee"/>
      <stop offset="0.55" stop-color="#37bed1"/>
      <stop offset="1" stop-color="#21b8a6"/>
    </linearGradient>
    <filter id="shadow" x="-20%" y="-20%" width="140%" height="150%">
      <feDropShadow dx="0" dy="2.2" stdDeviation="1.8" flood-color="#000" flood-opacity="0.38"/>
    </filter>
    <clipPath id="tile">
      <rect x="3" y="3" width="58" height="58" rx="13"/>
    </clipPath>
  </defs>

  <rect x="3" y="3" width="58" height="58" rx="12" fill="url(#bg)"/>
  <g clip-path="url(#tile)">
    <rect x="3" y="3" width="29" height="6.4" fill="#21b8a6"/>
    <rect x="32" y="3" width="29" height="6.4" fill="#ef5148"/>
    <path d="M3 9.6h58" stroke="#ffffff" stroke-opacity="0.14"/>

    <rect x="11" y="15" width="42" height="37" rx="4" fill="#101720" fill-opacity="0.28"/>
    <rect x="12" y="16" width="40" height="35" rx="3" fill="none" stroke="#ffffff" stroke-opacity="0.06"/>
    <path d="M18 22h28M18 42h28" stroke="#d8e2ee" stroke-width="0.55" stroke-opacity="0.08"/>

    <path
      d="M37 10.8 16.6 35.7h13.7l-4 17.4L47 26.7H34.2l2.8-15.9Z"
      fill="#071018"
      opacity="0.58"
      transform="translate(1.6 2.2)"
    />
    <path
      d="M37 10.8 16.6 35.7h13.7l-4 17.4L47 26.7H34.2l2.8-15.9Z"
      fill="url(#boltEdge)"
      filter="url(#shadow)"
    />

    <circle cx="49" cy="49" r="3.0" fill="#21b8a6"/>
    <circle cx="49" cy="49" r="1.35" fill="#eff8ff"/>
  </g>
  <rect x="3.5" y="3.5" width="57" height="57" rx="11.5" fill="none" stroke="#394657" stroke-width="0.9"/>
  <rect x="4.8" y="4.8" width="54.4" height="54.4" rx="10.4" fill="none" stroke="#ffffff" stroke-opacity="0.06"/>
</svg>
